# xmcd
#
# Track frame offsets:
#	150
#	14537
#	30903
#	41839
#	54990
#	68222
#	87264
#	102681
#	121016
#	138397
#	151552
#
# Disc length: 2238 seconds
#
# Revision: 0
# Processed by: cddbd v1.4PL0 Copyright (c) Steve Scherf et al.
# Submitted via: EasyCDDAExtractor 4.6.9.1
#
DISCID=8508bc0b
DTITLE=Let It Blues - How About?!!
DYEAR=2002
DGENRE=Alternative
TTITLE0=March'n'Roll
TTITLE1=You One
TTITLE2=Walking Led
TTITLE3=Fight Tomorrow
TTITLE4=Be...
TTITLE5=Dignity
TTITLE6=Cold Wind Reggae
TTITLE7=Going Down
TTITLE8=Hey Hey
TTITLE9=My Flower
TTITLE10=How About?
EXTD=submit=t0lik
EXTT0=
EXTT1=
EXTT2=
EXTT3=
EXTT4=
EXTT5=
EXTT6=
EXTT7=
EXTT8=
EXTT9=
EXTT10=
PLAYORDER=
